<?xml version="1.0" encoding="UTF-8"?>
<svg version="1.1" xmlns="http://www.w3.org/2000/svg" width="500" height="500">
<path d="M0 0 C165 0 330 0 500 0 C500 165 500 330 500 500 C335 500 170 500 0 500 C0 335 0 170 0 0 Z " fill="#F9F9F9" transform="translate(0,0)"/>
<path d="M0 0 C9.78036313 -0.11659593 19.56055701 -0.20506747 29.34147739 -0.25906086 C33.88472358 -0.28499412 38.42748924 -0.32008859 42.97045898 -0.37719727 C47.36662862 -0.43210555 51.76234036 -0.46154236 56.15882683 -0.47438622 C57.82394543 -0.48352191 59.48904312 -0.50135702 61.15396309 -0.52865028 C77.54643412 -0.78633042 91.0233326 2.38378725 103.75 13.375 C111.22652772 22.09761567 112.69694173 29.8045226 112.17919922 41.03515625 C111.48687452 48.62620416 107.46076725 54.87415981 102 60 C98.31912647 62.45391569 95.55644412 62.22802759 91.3125 62.125 C90.61060547 62.11597656 89.90871094 62.10695312 89.18554688 62.09765625 C87.45688475 62.07413704 85.72839855 62.03826713 84 62 C84.41572266 61.09507812 84.41572266 61.09507812 84.83984375 60.171875 C85.20207031 59.37265625 85.56429687 58.5734375 85.9375 57.75 C86.47697266 56.56664062 86.47697266 56.56664062 87.02734375 55.359375 C89.69353359 48.89199082 89.29710052 42.27972653 89.375 35.375 C89.43107422 33.52455078 89.43107422 33.52455078 89.48828125 31.63671875 C89.57600518 22.46469502 88.13779369 15.36145822 81.6875 8.5625 C73.10953029 3.57530831 65.26514074 3.47528747 55.5 3.3125 C50.715 3.209375 45.93 3.10625 41 3 C41 22.47 41 41.94 41 62 C33.74 62 26.48 62 19 62 C19 42.53 19 23.06 19 3 C12.73 3 6.46 3 0 3 C0 2.01 0 1.02 0 0 Z " fill="#020202" transform="translate(198,168)"/>
<path d="M0 0 C7.26 0 14.52 0 22 0 C22 15.51 22 31.02 22 47 C27.424375 46.9175 32.84875 46.835 38.4375 46.75 C40.13060303 46.73420898 41.82370605 46.71841797 43.56811523 46.70214844 C52.9153626 46.53657483 60.1906636 45.63372084 67.8125 39.875 C74.54071632 31.03220141 75.11965613 20.82774997 75.5625 10.125 C75.706875 6.78375 75.85125 3.4425 76 0 C83.26 0 90.52 0 98 0 C98.41587424 14.65956699 98.62924206 26.74972357 88 38 C78.42358828 47.45794065 65.28190732 51.17849542 52.08862305 51.11352539 C50.91709938 51.11374443 50.91709938 51.11374443 49.72190857 51.1139679 C47.15181661 51.1132737 44.58179798 51.10550446 42.01171875 51.09765625 C40.22524556 51.09579032 38.43877186 51.09436724 36.65229797 51.09336853 C31.95875629 51.08955716 27.26524573 51.07973867 22.57171631 51.06866455 C17.77893495 51.05842075 12.98614854 51.05386455 8.19335938 51.04882812 C-1.20444073 51.03811514 -10.60221777 51.02105531 -20 51 C-20 49.68 -20 48.36 -20 47 C-13.4 47 -6.8 47 0 47 C0 31.49 0 15.98 0 0 Z " fill="#030303" transform="translate(217,270)"/>
<path d="M0 0 C13.76883363 -0.07005322 27.53763967 -0.12277064 41.30661488 -0.15543652 C47.69967123 -0.17111215 54.09260812 -0.1923852 60.4855957 -0.22631836 C66.65176764 -0.25884389 72.81782446 -0.27683871 78.98407555 -0.28463173 C81.34008281 -0.29018747 83.69608357 -0.30103603 86.05204201 -0.31719017 C89.34448638 -0.33887368 92.63645114 -0.3419707 95.92895508 -0.34057617 C97.39954376 -0.35675491 97.39954376 -0.35675491 98.89984131 -0.3732605 C99.79586563 -0.36913651 100.69188995 -0.36501251 101.61506653 -0.36076355 C102.3939816 -0.36352893 103.17289667 -0.36629431 103.97541523 -0.36914349 C106.5326725 0.09712243 107.4183183 0.97644066 109 3 C109.36076355 4.9172821 109.36076355 4.9172821 109.34057617 7.10424805 C109.34034958 7.92487228 109.34012299 8.74549652 109.33988953 9.59098816 C109.32440567 10.47232925 109.30892181 11.35367035 109.29296875 12.26171875 C109.28872391 13.16751175 109.28447906 14.07330475 109.28010559 15.00654602 C109.26330848 17.90049933 109.2256545 20.79375706 109.1875 23.6875 C109.17245449 25.64907849 109.15876585 27.61066789 109.14648438 29.57226562 C109.11340157 34.38177856 109.06161222 39.19077133 109 44 C108.01 44 107.02 44 106 44 C105.86464844 42.93523437 105.72929687 41.87046875 105.58984375 40.7734375 C103.96203031 29.31771697 101.51416074 16.86362875 91.9375 9.25 C85.87813381 5.20188221 79.73207286 4.68232878 72.6640625 4.5859375 C71.88377686 4.56829346 71.10349121 4.55064941 70.29956055 4.5324707 C67.40824299 4.46980535 64.51659251 4.42334213 61.625 4.375 C55.14875 4.25125 48.6725 4.1275 42 4 C42 23.47 42 42.94 42 63 C34.74 63 27.48 63 20 63 C20 43.53 20 24.06 20 4 C13.4 4 6.8 4 0 4 C0 2.68 0 1.36 0 0 Z " fill="#050505" transform="translate(75,167)"/>
<path d="M0 0 C0.66 0 1.32 0 2 0 C2 14.85 2 29.7 2 45 C1.01 45 0.02 45 -1 45 C-1.21914063 44.04480469 -1.43828125 43.08960938 -1.6640625 42.10546875 C-4.5657183 30.03508199 -8.29300552 19.27018144 -19 12 C-19.72058594 11.49339844 -20.44117188 10.98679688 -21.18359375 10.46484375 C-30.29713505 5.23002562 -41.84005351 5.67093723 -52 7 C-60.11115681 9.26683752 -66.4284132 13.89624687 -71 21 C-74.14283702 27.24305931 -73.7061717 34.21210467 -73 41 C-70.72378385 47.30192073 -66.16861797 51.43781823 -60.203125 54.37890625 C-58.74132812 54.96478516 -58.74132812 54.96478516 -57.25 55.5625 C-56.2084375 55.98015625 -55.166875 56.3978125 -54.09375 56.828125 C-50.09520326 58.34272604 -46.07614615 59.70922039 -42 61 C-42 61.33 -42 61.66 -42 62 C-56.19 62 -70.38 62 -85 62 C-87.17242239 55.48273283 -88.53486602 51.1622157 -88.4375 44.625 C-88.42847656 43.88749512 -88.41945313 43.14999023 -88.41015625 42.39013672 C-88.05515064 31.11131281 -83.51713693 22.34948427 -76 14 C-64.1899452 3.46240901 -50.41198572 0.29553914 -35.00976562 0.86376953 C-26.81988117 1.41891476 -19.54935885 4.39172886 -12.27734375 8.01171875 C-9.95508381 9.19904656 -9.95508381 9.19904656 -7 9 C-5.15667058 7.00165889 -5.15667058 7.00165889 -3.4375 4.5 C-2.3370147 2.96642048 -1.19984287 1.45715857 0 0 Z " fill="#080808" transform="translate(416,168)"/>
<path d="M0 0 C7.26 0 14.52 0 22 0 C22 16.17 22 32.34 22 49 C28.6 49 35.2 49 42 49 C42 50.32 42 51.64 42 53 C21.54 53 1.08 53 -20 53 C-20 51.68 -20 50.36 -20 49 C-13.4 49 -6.8 49 0 49 C0 32.83 0 16.66 0 0 Z " fill="#020202" transform="translate(95,270)"/>
<path d="M0 0 C6.27 0 12.54 0 19 0 C19.51346322 15.74620537 16.12895617 30.34122314 6.1875 42.9375 C-3.37280594 52.97835042 -16.13392722 58.92925941 -29.91137695 59.29272461 C-45.87965362 59.43952184 -58.6542021 54.19870261 -71 44 C-71.25910156 44.72574219 -71.51820313 45.45148438 -71.78515625 46.19921875 C-73.04474561 49.10315949 -74.50801206 51.31038983 -76.4375 53.8125 C-77.03433594 54.60269531 -77.63117188 55.39289063 -78.24609375 56.20703125 C-78.82488281 56.79871094 -79.40367187 57.39039063 -80 58 C-80.99 58 -81.98 58 -83 58 C-83 42.49 -83 26.98 -83 11 C-79 13 -79 13 -77.76171875 15.87109375 C-77.40722656 17.04800781 -77.05273438 18.22492188 -76.6875 19.4375 C-71.62219839 34.97576317 -62.33927151 44.72419461 -47.95703125 52.0390625 C-39.57737653 55.50762364 -27.71151737 55.46508007 -19.0625 52.875 C-17.01875564 52.05236284 -17.01875564 52.05236284 -15 51 C-14.15953125 50.58621094 -13.3190625 50.17242187 -12.453125 49.74609375 C-4.36782768 45.35659062 0.42642045 39.46374104 4 31 C6.42409098 21.14999651 5.87260776 11.86462376 1 3 C0.505 1.515 0.505 1.515 0 0 Z " fill="#080808" transform="translate(408,270)"/>
<path d="M0 0 C2 2 2 2 2.3125 5.4375 C2 9 2 9 0.9375 10.9375 C-2.11976176 12.6140629 -4.5906288 12.36528977 -8 12 C-9.9375 10.9375 -9.9375 10.9375 -11 9 C-11.4375 5.5 -11.4375 5.5 -11 2 C-7.87890362 -1.99500336 -4.5824922 -1.10319257 0 0 Z " fill="#181818" transform="translate(383,244)"/>
<path d="M0 0 C6.8359375 -0.1953125 6.8359375 -0.1953125 9 0 C11 2 11 2 11.0625 4.375 C11.041875 5.24125 11.02125 6.1075 11 7 C11.20625 7.721875 11.4125 8.44375 11.625 9.1875 C11.74875 9.785625 11.8725 10.38375 12 11 C10 13 10 13 7.6171875 13.1953125 C6.71226562 13.17210937 5.80734375 13.14890625 4.875 13.125 C2.461875 13.063125 2.461875 13.063125 0 13 C0 8.71 0 4.42 0 0 Z " fill="#4C4C4C" transform="translate(265,243)"/>
<path d="M0 0 C6.8359375 -0.1953125 6.8359375 -0.1953125 9 0 C11 2 11 2 11.0625 4.375 C11.041875 5.24125 11.02125 6.1075 11 7 C11.20625 7.721875 11.4125 8.44375 11.625 9.1875 C11.74875 9.785625 11.8725 10.38375 12 11 C10 13 10 13 7.6171875 13.1953125 C6.71226562 13.17210937 5.80734375 13.14890625 4.875 13.125 C2.461875 13.063125 2.461875 13.063125 0 13 C0 8.71 0 4.42 0 0 Z " fill="#606060" transform="translate(206,243)"/>
<path d="M0 0 C1.258125 -0.04125 2.51625 -0.0825 3.8125 -0.125 C4.52019531 -0.14820313 5.22789062 -0.17140625 5.95703125 -0.1953125 C8 0 8 0 11 2 C11.1875 5.125 11.1875 5.125 11 8 C10.34 8 9.68 8 9 8 C9.66 9.65 10.32 11.3 11 13 C9.68 12.67 8.36 12.34 7 12 C7 11.34 7 10.68 7 10 C6.01 10 5.02 10 4 10 C4 10.99 4 11.98 4 13 C2.68 13 1.36 13 0 13 C0 8.71 0 4.42 0 0 Z " fill="#464646" transform="translate(303,243)"/>
<path d="M0 0 C6.4 -0.36923077 6.4 -0.36923077 9.4375 1.5 C9.953125 1.995 10.46875 2.49 11 3 C10.70703125 5.01822917 10.4140625 7.03645833 10.12109375 9.0546875 C9.8315703 11.08140667 9.8315703 11.08140667 11 13 C8.07120629 12.37240135 5.63904371 11.41377341 3 10 C3 10.99 3 11.98 3 13 C2.01 13 1.02 13 0 13 C0 8.71 0 4.42 0 0 Z " fill="#1F1F1F" transform="translate(246,243)"/>
<path d="M0 0 C0.99 0 1.98 0 3 0 C3 4.29 3 8.58 3 13 C2.01 13 1.02 13 0 13 C-0.33 11.35 -0.66 9.7 -1 8 C-1.66 9.32 -2.32 10.64 -3 12 C-6 11 -6 11 -7.1875 8.9375 C-7.455625 8.298125 -7.72375 7.65875 -8 7 C-8.33 8.98 -8.66 10.96 -9 13 C-9.66 13 -10.32 13 -11 13 C-11 9.04 -11 5.08 -11 1 C-10.01 1 -9.02 1 -8 1 C-6.95107762 2.63631892 -5.95093297 4.30485863 -5 6 C-4.34 6.33 -3.68 6.66 -3 7 C-2.690625 6.21625 -2.38125 5.4325 -2.0625 4.625 C-1 2 -1 2 0 0 Z " fill="#1E1E1E" transform="translate(163,243)"/>
<path d="M0 0 C6.4 -0.36923077 6.4 -0.36923077 9.4375 1.5 C9.953125 1.995 10.46875 2.49 11 3 C10.6875 5.375 10.6875 5.375 10 8 C7 10 7 10 3 10 C3 10.99 3 11.98 3 13 C2.01 13 1.02 13 0 13 C0 8.71 0 4.42 0 0 Z " fill="#252525" transform="translate(394,243)"/>
<path d="M0 0 C0.99 0 1.98 0 3 0 C3.83790789 1.78953185 4.67019396 3.58169695 5.5 5.375 C5.9640625 6.37273437 6.428125 7.37046875 6.90625 8.3984375 C8 11 8 11 8 13 C7.01 13 6.02 13 5 13 C4.67 12.34 4.34 11.68 4 11 C0.97065509 10.34227572 0.97065509 10.34227572 -2 10 C-2.33 10.99 -2.66 11.98 -3 13 C-3.99 12.67 -4.98 12.34 -6 12 C-4.02 8.04 -2.04 4.08 0 0 Z " fill="#131313" transform="translate(136,243)"/>
<path d="M0 0 C0.99 0 1.98 0 3 0 C3.83790789 1.78953185 4.67019396 3.58169695 5.5 5.375 C5.9640625 6.37273437 6.428125 7.37046875 6.90625 8.3984375 C8 11 8 11 8 13 C7.01 13 6.02 13 5 13 C4.67 12.34 4.34 11.68 4 11 C0.97065509 10.34227572 0.97065509 10.34227572 -2 10 C-2 10.99 -2 11.98 -2 13 C-2.99 13 -3.98 13 -5 13 C-4.39254603 8.14036821 -2.27241033 4.2594482 0 0 Z " fill="#151515" transform="translate(230,243)"/>
<path d="M0 0 C0.99 0 1.98 0 3 0 C3.83790789 1.78953185 4.67019396 3.58169695 5.5 5.375 C5.9640625 6.37273437 6.428125 7.37046875 6.90625 8.3984375 C8 11 8 11 8 13 C7.01 13 6.02 13 5 13 C4.67 12.34 4.34 11.68 4 11 C0.97065509 10.34227572 0.97065509 10.34227572 -2 10 C-2 10.99 -2 11.98 -2 13 C-2.99 13 -3.98 13 -5 13 C-4.39254603 8.14036821 -2.27241033 4.2594482 0 0 Z " fill="#151515" transform="translate(179,243)"/>
<path d="M0 0 C3.3 0 6.6 0 10 0 C10 0.99 10 1.98 10 3 C7.69 3 5.38 3 3 3 C3 3.99 3 4.98 3 6 C4.98 6 6.96 6 9 6 C9 6.66 9 7.32 9 8 C7.02 8 5.04 8 3 8 C3 8.99 3 9.98 3 11 C5.31 11 7.62 11 10 11 C10 11.66 10 12.32 10 13 C6.7 13 3.4 13 0 13 C0 8.71 0 4.42 0 0 Z " fill="#222222" transform="translate(285,243)"/>
<path d="M0 0 C0.66 0 1.32 0 2 0 C2 1.32 2 2.64 2 4 C4.31 4 6.62 4 9 4 C9 2.68 9 1.36 9 0 C9.66 0 10.32 0 11 0 C11 3.96 11 7.92 11 12 C10.01 12 9.02 12 8 12 C8 10.35 8 8.7 8 7 C6.35 7 4.7 7 3 7 C3 8.65 3 10.3 3 12 C2.01 12 1.02 12 0 12 C0 8.04 0 4.08 0 0 Z " fill="#1D1D1D" transform="translate(352,244)"/>
<path d="M0 0 C2.33944736 0.28730055 4.6739143 0.61936779 7 1 C7 1.66 7 2.32 7 3 C5.02 3 3.04 3 1 3 C1.84566739 5.27173092 1.84566739 5.27173092 4.5 5.875 C7 7 7 7 7.9375 9 C7.958125 9.66 7.97875 10.32 8 11 C6 13 6 13 4.0546875 13.1953125 C2.03645833 13.13020833 0.01822917 13.06510417 -2 13 C-2 12.01 -2 11.02 -2 10 C-0.02 10 1.96 10 4 10 C3.071875 9.566875 3.071875 9.566875 2.125 9.125 C0 8 0 8 -2 6 C-1.44444444 1.44444444 -1.44444444 1.44444444 0 0 Z " fill="#1F1F1F" transform="translate(336,243)"/>
<path d="M0 0 C3.3 0 6.6 0 10 0 C10 0.99 10 1.98 10 3 C7.69 3 5.38 3 3 3 C3 3.99 3 4.98 3 6 C4.98 6 6.96 6 9 6 C9 6.66 9 7.32 9 8 C7.02 8 5.04 8 3 8 C3 9.65 3 11.3 3 13 C2.01 13 1.02 13 0 13 C0 8.71 0 4.42 0 0 Z " fill="#222222" transform="translate(114,243)"/>
<path d="M0 0 C2.31 0 4.62 0 7 0 C7 0.33 7 0.66 7 1 C5.35 1 3.7 1 2 1 C2 2.32 2 3.64 2 5 C3.32 5.33 4.64 5.66 6 6 C4.68 6 3.36 6 2 6 C2 7.32 2 8.64 2 10 C3.65 9.67 5.3 9.34 7 9 C7.33 7.68 7.66 6.36 8 5 C8.99 5.66 9.98 6.32 11 7 C10.125 10.875 10.125 10.875 9 12 C5.99668982 12.14193337 3.00782866 12.04236378 0 12 C0 8.04 0 4.08 0 0 Z " fill="#000000" transform="translate(266,244)"/>
<path d="M0 0 C2.31 0 4.62 0 7 0 C7 0.33 7 0.66 7 1 C5.35 1 3.7 1 2 1 C2 2.32 2 3.64 2 5 C3.32 5.33 4.64 5.66 6 6 C4.68 6 3.36 6 2 6 C2 7.32 2 8.64 2 10 C3.65 9.67 5.3 9.34 7 9 C7.33 7.68 7.66 6.36 8 5 C8.99 5.66 9.98 6.32 11 7 C10.125 10.875 10.125 10.875 9 12 C5.99668982 12.14193337 3.00782866 12.04236378 0 12 C0 8.04 0 4.08 0 0 Z " fill="#000000" transform="translate(207,244)"/>
<path d="M0 0 C0.66 0 1.32 0 2 0 C2 4.95 2 9.9 2 15 C0.02 15 -1.96 15 -4 15 C-3.5253725 12.6865641 -3.04517721 10.37426981 -2.5625 8.0625 C-2.29566406 6.77472656 -2.02882812 5.48695313 -1.75390625 4.16015625 C-1 1 -1 1 0 0 Z " fill="#0A0A0A" transform="translate(154,215)"/>
<path d="M0 0 C1.98 0 3.96 0 6 0 C4.68 0.33 3.36 0.66 2 1 C2 2.65 2 4.3 2 6 C3.1446875 5.87625 3.1446875 5.87625 4.3125 5.75 C7 6 7 6 8.8125 7.875 C10 10 10 10 10 12 C8.68 11.67 7.36 11.34 6 11 C6 10.34 6 9.68 6 9 C5.01 9 4.02 9 3 9 C3 9.99 3 10.98 3 12 C2.01 12 1.02 12 0 12 C0 8.04 0 4.08 0 0 Z " fill="#000000" transform="translate(304,244)"/>
<path d="M0 0 C2.31 0 4.62 0 7 0 C7 0.66 7 1.32 7 2 C5.68 2 4.36 2 3 2 C3 3.98 3 5.96 3 8 C3.99 8.33 4.98 8.66 6 9 C5.01 9 4.02 9 3 9 C3 10.32 3 11.64 3 13 C2.01 13 1.02 13 0 13 C0 8.71 0 4.42 0 0 Z " fill="#151515" transform="translate(394,243)"/>
<path d="M0 0 C2.5 0.125 2.5 0.125 3.5 1.125 C3.6875 3.5625 3.6875 3.5625 3.5 6.125 C2.84 6.785 2.18 7.445 1.5 8.125 C-2.03571429 7.58928571 -2.03571429 7.58928571 -3.5 6.125 C-3.625 3.625 -3.625 3.625 -3.5 1.125 C-2.5 0.125 -2.5 0.125 0 0 Z " fill="#EEEEEE" transform="translate(378.5,245.875)"/>
<path d="M0 0 C6.75 0.75 6.75 0.75 9 3 C9.56410256 9.20512821 9.56410256 9.20512821 7.625 11.9375 C6 13 6 13 4 13 C4.33 10.03 4.66 7.06 5 4 C3.68 3.34 2.36 2.68 1 2 C0.67 1.34 0.34 0.68 0 0 Z " fill="#242424" transform="translate(376,243)"/>
<path d="M0 0 C2.31 0 4.62 0 7 0 C7 0.66 7 1.32 7 2 C5.68 2 4.36 2 3 2 C3 3.98 3 5.96 3 8 C3.99 8.33 4.98 8.66 6 9 C4.68 9 3.36 9 2 9 C2 10.32 2 11.64 2 13 C1.34 13 0.68 13 0 13 C0 8.71 0 4.42 0 0 Z " fill="#151515" transform="translate(246,243)"/>
<path d="M0 0 C0.99 0 1.98 0 3 0 C4.32 2.64 5.64 5.28 7 8 C6.01 8 5.02 8 4 8 C3.67 7.34 3.34 6.68 3 6 C2.67 7.98 2.34 9.96 2 12 C1.34 12 0.68 12 0 12 C0 8.04 0 4.08 0 0 Z " fill="#090909" transform="translate(152,244)"/>
<path d="M0 0 C0.99 0 1.98 0 3 0 C3.66 1.98 4.32 3.96 5 6 C4.34 6 3.68 6 3 6 C3 6.66 3 7.32 3 8 C0.03 7.505 0.03 7.505 -3 7 C-1.125 1.125 -1.125 1.125 0 0 Z " fill="#232323" transform="translate(136,243)"/>
<path d="M0 0 C0.66 0 1.32 0 2 0 C2 3.96 2 7.92 2 12 C1.01 12 0.02 12 -1 12 C-1 10.02 -1 8.04 -1 6 C-2.65 6 -4.3 6 -6 6 C-6 5.67 -6 5.34 -6 5 C-4.35 4.67 -2.7 4.34 -1 4 C-0.67 2.68 -0.34 1.36 0 0 Z " fill="#0D0D0D" transform="translate(361,244)"/>
<path d="M0 0 C0.99 0 1.98 0 3 0 C3.66 1.98 4.32 3.96 5 6 C4.34 6 3.68 6 3 6 C3 6.66 3 7.32 3 8 C2.01 8 1.02 8 0 8 C-0.38063221 5.6739143 -0.71269945 3.33944736 -1 1 C-0.67 0.67 -0.34 0.34 0 0 Z " fill="#585858" transform="translate(230,243)"/>
<path d="M0 0 C0.99 0 1.98 0 3 0 C3.66 1.98 4.32 3.96 5 6 C4.34 6 3.68 6 3 6 C3 6.66 3 7.32 3 8 C2.01 8 1.02 8 0 8 C-0.38063221 5.6739143 -0.71269945 3.33944736 -1 1 C-0.67 0.67 -0.34 0.34 0 0 Z " fill="#585858" transform="translate(179,243)"/>
<path d="M0 0 C2.3125 -0.25 2.3125 -0.25 5 0 C6.97610386 2.04424538 8 3.1176825 8 6 C6.68 5.67 5.36 5.34 4 5 C4 4.34 4 3.68 4 3 C3.01 3 2.02 3 1 3 C0.67 3.99 0.34 4.98 0 6 C0 4.02 0 2.04 0 0 Z " fill="#313131" transform="translate(306,250)"/>
<path d="M0 0 C2.31 0.33 4.62 0.66 7 1 C7 1.66 7 2.32 7 3 C5.02 3 3.04 3 1 3 C0.67 3.66 0.34 4.32 0 5 C-0.66 4.67 -1.32 4.34 -2 4 C-1.34 2.68 -0.68 1.36 0 0 Z " fill="#2D2D2D" transform="translate(336,243)"/>
<path d="M0 0 C0.33 0.66 0.66 1.32 1 2 C4.02934491 2.65772428 4.02934491 2.65772428 7 3 C6.01 4.485 6.01 4.485 5 6 C2.525 5.01 2.525 5.01 0 4 C0 2.68 0 1.36 0 0 Z " fill="#121212" transform="translate(335,246)"/>
<path d="M0 0 C1.65 0 3.3 0 5 0 C5 1.32 5 2.64 5 4 C3.35 4 1.7 4 0 4 C0 2.68 0 1.36 0 0 Z " fill="#DFDFDF" transform="translate(306,246)"/>
<path d="M0 0 C1.98 0.99 1.98 0.99 4 2 C3.6875 3.9375 3.6875 3.9375 3 6 C2.01 6.33 1.02 6.66 0 7 C0 4.69 0 2.38 0 0 Z " fill="#121212" transform="translate(273,249)"/>
<path d="M0 0 C1.98 0.99 1.98 0.99 4 2 C3.6875 3.9375 3.6875 3.9375 3 6 C2.01 6.33 1.02 6.66 0 7 C0 4.69 0 2.38 0 0 Z " fill="#1D1D1D" transform="translate(214,249)"/>
<path d="M0 0 C2.475 0.495 2.475 0.495 5 1 C5 1.99 5 2.98 5 4 C3.35 4 1.7 4 0 4 C0 2.68 0 1.36 0 0 Z " fill="#ACACAC" transform="translate(268,245)"/>
<path d="M0 0 C2.38564077 0.57584432 4.66682784 1.22227595 7 2 C7 2.66 7 3.32 7 4 C5.35 4 3.7 4 2 4 C1.34 2.68 0.68 1.36 0 0 Z " fill="#121212" transform="translate(373,252)"/>
<path d="M0 0 C0.66 1.32 1.32 2.64 2 4 C1.34 4 0.68 4 0 4 C0 4.66 0 5.32 0 6 C-1.32 5.67 -2.64 5.34 -4 5 C-3.67 4.01 -3.34 3.02 -3 2 C-2.01 2 -1.02 2 0 2 C0 1.34 0 0.68 0 0 Z " fill="#858585" transform="translate(139,245)"/>
<path d="M0 0 C2.475 0.495 2.475 0.495 5 1 C4.67 1.99 4.34 2.98 4 4 C2.68 4 1.36 4 0 4 C0 2.68 0 1.36 0 0 Z " fill="#F3F3F3" transform="translate(397,246)"/>
<path d="M0 0 C2.475 0.495 2.475 0.495 5 1 C4.67 1.99 4.34 2.98 4 4 C2.68 4 1.36 4 0 4 C0 2.68 0 1.36 0 0 Z " fill="#F3F3F3" transform="translate(249,246)"/>
<path d="M0 0 C1.98 0 3.96 0 6 0 C5.67 0.99 5.34 1.98 5 3 C3.35 3 1.7 3 0 3 C0 2.01 0 1.02 0 0 Z " fill="#D8D8D8" transform="translate(268,251)"/>
<path d="M0 0 C1.98 0 3.96 0 6 0 C5.67 0.99 5.34 1.98 5 3 C3.35 3 1.7 3 0 3 C0 2.01 0 1.02 0 0 Z " fill="#DBDBDB" transform="translate(209,251)"/>
<path d="M0 0 C0.66 0.99 1.32 1.98 2 3 C1.34 4.32 0.68 5.64 0 7 C-0.99 6.67 -1.98 6.34 -3 6 C-2.67 4.68 -2.34 3.36 -2 2 C-1.34 2 -0.68 2 0 2 C0 1.34 0 0.68 0 0 Z " fill="#303030" transform="translate(160,248)"/>
</svg>
